<svg width="18" height="4" viewBox="0 0 18 4" fill="none" xmlns="http://www.w3.org/2000/svg">
<path fill-rule="evenodd" clip-rule="evenodd" d="M7.91787 1.35439L4.55195 1.36097L1.18289 1.37085L1.02918 1.46958C0.935073 1.53212 0.840965 1.63085 0.781364 1.72959C0.696667 1.8777 0.687256 1.91719 0.687256 2.1772C0.687256 2.4372 0.696667 2.4767 0.781364 2.6248C0.840965 2.72354 0.935073 2.82227 1.02918 2.88481L1.18289 2.98354L4.55195 2.99342L7.91787 3H9.48633L12.8522 2.99342L16.2213 2.98354L16.375 2.88481C16.4691 2.82227 16.5632 2.72354 16.6228 2.6248C16.7075 2.4767 16.7169 2.4372 16.7169 2.1772C16.7169 1.91719 16.7075 1.8777 16.6228 1.72959C16.5632 1.63085 16.4691 1.53212 16.375 1.46958L16.2213 1.37085L12.8522 1.36097L9.48633 1.35439H7.91787Z" fill="white" stroke="white"/>
</svg>
